{"title":"Singapore Party Girl Hidden Sex","uid":10824621,"size":201728845,"categoryP":"porn","categoryS":"movie_clips","magnet":"?xt=urn:btih:ce79c5d501d3b322d17d92636febda72ca6ef2cb&amp;dn=Singapore+Party+Girl+Hidden+Sex&amp;tr=udp%3A%2F%2Ftracker.openbittorrent.com%3A80&amp;tr=udp%3A%2F%2Fopen.demonii.com%3A1337&amp;tr=udp%3A%2F%2Ftracker.coppersurfer.tk%3A6969&amp;tr=udp%3A%2F%2Fexodus.desync.com%3A6969","seeders":5,"leechers":2,"uploader":"ThousandPeers","files":-1,"time":1408570570,"description":"Format                                   : CDXA/MPEG-PS\nFile size                                : 192 MiB\nDuration                                 : 19mn 12s\nOverall bit rate                         : 1 412 Kbps\n\nVideo\nID                                       : 224 (0xE0)\nFormat                                   : MPEG Video\nFormat version                           : Version 1\nFormat settings, BVOP                    : Yes\nFormat settings, Matrix                  : Default\nFormat settings, GOP                     : M=3, N=15\nDuration                                 : 19mn 12s\nBit rate                                 : 1 150 Kbps\nWidth                                    : 352 pixels\nHeight                                   : 288 pixels\nDisplay aspect ratio                     : 4:3\nFrame rate                               : 25.000 fps\nStandard                                 : PAL\nColor space                              : YUV\nBit depth                                : 8 bits\nScan type                                : Progressive\nCompression mode                         : Lossy\nBits/(Pixel*Frame)                       : 0.454\nTime code of first frame                 : 00:00:00:00\nTime code source                         : Group of pictures header\nStream size                              : 158 MiB (82%)\n\nAudio\nID                                       : 192 (0xC0)\nFormat                                   : MPEG Audio\nFormat version                           : Version 1\nFormat profile                           : Layer 2\nDuration                                 : 19mn 2s\nBit rate mode                            : Constant\nBit rate                                 : 224 Kbps\nChannel(s)                               : 2 channels\nSampling rate                            : 44.1 KHz\nCompression mode                         : Lossy\nDelay relative to video                  : -80ms\nStream size                              : 30.5 MiB (16%)","torrent":{"xt":"urn:btih:ce79c5d501d3b322d17d92636febda72ca6ef2cb","amp;dn":"Singapore+Party+Girl+Hidden+Sex","amp;tr":["udp%3A%2F%2Ftracker.openbittorrent.com%3A80","udp%3A%2F%2Fopen.demonii.com%3A1337","udp%3A%2F%2Ftracker.coppersurfer.tk%3A6969","udp%3A%2F%2Fexodus.desync.com%3A6969"],"infoHash":"ce79c5d501d3b322d17d92636febda72ca6ef2cb","infoHashBuffer":{"type":"Buffer","data":[206,121,197,213,1,211,179,34,209,125,146,99,111,235,218,114,202,110,242,203]},"announce":[],"urlList":[]}}